<svg xmlns="http://www.w3.org/2000/svg" width="2048" height="1152" fill="none" xmlns:v="https://vecta.io/nano"><g stroke="#171717" clip-path="url(#A)" stroke-width="3"><use href="#B"/><path d="M156-17c-114 273-273 889 0 1169M307-17c-114 273-273 889 0 1169M458-17c-114 273-273 889 0 1169M609-17c-114 273-273 889 0 1169M760-17c-114 273-273 889 0 1169M911-17c-114 273-273 889 0 1169M1062-17c-114 273-273 889 0 1169M1213-17c-114 273-273 889 0 1169M1364-17c-115 273-275 889 0 1169M1515-17c-115 273-275 889 0 1169M5-17c-114 273-273 889 0 1169"/><path d="M156-17c-114 273-273 889 0 1169M307-17c-114 273-273 889 0 1169M458-17c-114 273-273 889 0 1169M609-17c-114 273-273 889 0 1169M1666-17c-114 273-273 889 0 1169M1817-17c-114 273-273 889 0 1169M1968-17c-114 273-273 889 0 1169M2119-17c-114 273-273 889 0 1169"/></g><defs><clipPath id="A"><path fill="#fff" d="M0 0h2048v1152H0z"/></clipPath><path id="B" d="M5-17c-114 273-273 889 0 1169"/></defs></svg>